<svg width="34" height="35" viewBox="0 0 34 35" fill="none" xmlns="http://www.w3.org/2000/svg">
<path d="M13.6666 25.8335L5.33325 17.5002L7.68325 15.1335L13.6666 21.1168L26.3166 8.46683L28.6666 10.8335M16.9999 0.833496C14.8112 0.833496 12.644 1.26459 10.6219 2.10217C8.59977 2.93975 6.76245 4.16741 5.21481 5.71505C2.0892 8.84066 0.333252 13.0799 0.333252 17.5002C0.333252 21.9204 2.0892 26.1597 5.21481 29.2853C6.76245 30.8329 8.59977 32.0606 10.6219 32.8982C12.644 33.7357 14.8112 34.1668 16.9999 34.1668C21.4202 34.1668 25.6594 32.4109 28.785 29.2853C31.9106 26.1597 33.6666 21.9204 33.6666 17.5002C33.6666 15.3115 33.2355 13.1442 32.3979 11.1221C31.5603 9.10001 30.3327 7.26269 28.785 5.71505C27.2374 4.16741 25.4001 2.93975 23.378 2.10217C21.3559 1.26459 19.1886 0.833496 16.9999 0.833496Z" fill="#008000"/>
</svg>
