<svg width="30" height="31" viewBox="0 0 30 31" fill="none" xmlns="http://www.w3.org/2000/svg">
<path d="M10.625 24.25H24.2313C24.7863 24.25 25.2612 24.0521 25.6562 23.6562C26.0513 23.2604 26.2492 22.7854 26.25 22.2313V19.225H10.625V24.25ZM3.75 11.775H9.375V6.75H5.77C5.21417 6.75 4.73875 6.94792 4.34375 7.34375C3.94875 7.73958 3.75083 8.21458 3.75 8.76875V11.775ZM3.75 18H9.375V13.025H3.75V18ZM5.77 24.25H9.375V19.225H3.75V22.2313C3.75 22.7863 3.94792 23.2612 4.34375 23.6562C4.73958 24.0513 5.21458 24.2492 5.76875 24.25M10.625 18H26.25V13.025H10.625V18ZM10.625 11.775H26.25V8.7675C26.25 8.2125 26.0521 7.7375 25.6562 7.3425C25.2604 6.9475 24.7858 6.75 24.2325 6.75H10.625V11.775Z" fill="white"/>
</svg>
