<svg width="230" height="60" viewBox="0 0 230 60" fill="none" xmlns="http://www.w3.org/2000/svg">
<path d="M15.3333 34.1668L18.0899 33.2484C19.5628 32.7575 20.9012 31.9304 21.999 30.8325C23.0969 29.7347 23.924 28.3963 24.4149 26.9234L25.3333 24.1668C25.3333 24.1668 27.8333 22.5001 31.9999 22.5001C36.1666 22.5001 38.6666 24.1668 38.6666 24.1668L39.5849 26.9234C40.0758 28.3963 40.903 29.7347 42.0008 30.8325C43.0986 31.9304 44.437 32.7575 45.9099 33.2484L48.6666 34.1668M27.8333 27.5001V35.8334L20.7499 37.2501C20.4045 37.3219 20.0936 37.5086 19.8678 37.7797C19.6421 38.0508 19.5147 38.3904 19.5066 38.7431C19.4985 39.0958 19.6101 39.4409 19.8231 39.7221C20.0362 40.0033 20.3382 40.2041 20.6799 40.2917C22.8549 40.8451 27.6766 42.1168 31.9999 43.6084C36.4283 45.1351 40.3333 46.8917 40.3333 48.3334M36.1666 27.5001V35.8334L43.2499 37.2501C43.5953 37.3219 43.9063 37.5086 44.132 37.7797C44.3578 38.0508 44.4851 38.3904 44.4932 38.7431C44.5013 39.0958 44.3898 39.4409 44.1767 39.7221C43.9637 40.0033 43.6617 40.2041 43.3199 40.2917C41.6966 40.7051 38.5983 41.5184 35.3333 42.5251M28.6666 44.8534C25.7833 46.0401 23.6666 47.2701 23.6666 48.3334M31.7499 19.1668C31.7499 19.1668 29.0833 17.5001 29.0833 15.4168C29.0833 14.6441 29.3902 13.9031 29.9365 13.3567C30.4829 12.8104 31.2239 12.5034 31.9966 12.5034C32.7693 12.5034 33.5103 12.8104 34.0566 13.3567C34.603 13.9031 34.9099 14.6441 34.9099 15.4168C34.9099 17.5001 32.2499 19.1668 32.2499 19.1668H31.7499Z" stroke="white" stroke-width="4"/>
<path d="M63.48 39L59.784 29.064V39H55.68V21.768H61.032L65.376 33.456L69.696 21.768H75.048V39H70.944V28.944L67.224 39H63.48ZM82.7344 23.088C82.7344 24.432 81.6544 25.416 80.0944 25.416C78.5344 25.416 77.4544 24.432 77.4544 23.088C77.4544 21.72 78.5344 20.736 80.0944 20.736C81.6544 20.736 82.7344 21.72 82.7344 23.088ZM82.1824 39H78.0784V26.088H82.1824V39ZM88.9793 32.208V39H84.8753V26.088H88.6433V27.648C89.6513 26.52 90.8513 25.848 92.4833 25.848C95.0273 25.848 96.8273 27.552 96.8273 30.696V39H92.7233V32.064C92.7233 30.432 92.1473 29.544 90.8993 29.544C89.8913 29.544 88.9793 30.264 88.9793 32.208ZM98.5905 32.544C98.5905 28.8 100.871 25.848 104.351 25.848C105.695 25.848 106.847 26.328 107.855 27.288V21.768H111.959V39H108.191V37.536C107.135 38.64 105.863 39.24 104.351 39.24C100.871 39.24 98.5905 36.24 98.5905 32.544ZM102.863 32.544C102.863 34.56 104.087 35.544 105.335 35.544C106.607 35.544 107.807 34.56 107.807 32.52C107.807 30.456 106.583 29.544 105.335 29.544C104.087 29.544 102.863 30.48 102.863 32.544ZM119.993 39H115.889V29.664H113.489V26.088H115.889V25.632C115.889 22.968 117.329 21.48 120.209 21.48C121.145 21.48 121.937 21.648 122.537 21.912V25.152C122.201 25.008 121.673 24.912 121.241 24.912C120.545 24.912 119.993 25.128 119.993 25.728V26.088H123.161V29.664H119.993V39ZM132.398 33.456V26.088H136.502V39H132.734V37.608C132.014 38.568 130.646 39.24 129.134 39.24C126.566 39.24 124.622 37.632 124.622 34.224V26.088H128.726V33.456C128.726 34.872 129.422 35.568 130.574 35.568C131.39 35.568 132.398 34.92 132.398 33.456ZM143.332 39H139.18V21.768H143.332V39ZM160.16 33.36C160.16 36.912 157.328 39.24 152.84 39.24C148.352 39.24 145.472 36.864 145.16 33.048H149.744C149.792 34.68 150.872 35.712 152.744 35.712C154.304 35.712 155.336 35.112 155.336 34.032C155.336 33.288 154.592 32.736 153.584 32.544L150.44 31.944C147.68 31.416 145.856 29.808 145.856 27.024C145.856 23.808 148.688 21.552 152.552 21.552C156.656 21.552 159.608 23.904 159.872 27.624H155.288C155.168 26.064 154.112 25.056 152.6 25.056C151.256 25.056 150.44 25.776 150.44 26.712C150.44 27.48 151.208 27.936 152.12 28.104L155.456 28.752C158.528 29.352 160.16 30.864 160.16 33.36ZM175.517 32.544C175.517 36.288 173.237 39.24 169.757 39.24C168.413 39.24 167.261 38.76 166.253 37.8V43.632H162.149V26.088H165.917V27.552C166.973 26.448 168.245 25.848 169.757 25.848C173.237 25.848 175.517 28.848 175.517 32.544ZM171.245 32.544C171.245 30.528 170.021 29.544 168.773 29.544C167.501 29.544 166.301 30.528 166.301 32.568C166.301 34.632 167.525 35.544 168.773 35.544C170.021 35.544 171.245 34.608 171.245 32.544ZM184.943 39V37.752C184.031 38.784 182.903 39.24 181.247 39.24C178.559 39.24 176.759 37.632 176.759 35.184C176.759 32.664 178.799 31.296 182.495 31.296C183.191 31.296 183.839 31.344 184.391 31.44V30.816C184.391 29.688 183.743 29.064 182.591 29.064C181.463 29.064 180.791 29.688 180.647 30.816H176.951C177.191 27.816 179.423 25.848 182.615 25.848C186.167 25.848 188.255 27.768 188.255 31.032V39H184.943ZM180.623 35.064C180.623 35.904 181.199 36.408 182.207 36.408C183.575 36.408 184.391 35.76 184.391 34.704V33.888C183.767 33.768 183.287 33.72 182.759 33.72C181.367 33.72 180.623 34.176 180.623 35.064ZM196.501 39.24C192.661 39.24 189.997 36.48 189.997 32.544C189.997 28.704 192.781 25.848 196.501 25.848C200.053 25.848 202.693 28.248 203.053 31.848H198.685C198.613 30.432 197.773 29.544 196.525 29.544C195.085 29.544 194.245 30.648 194.245 32.544C194.245 34.488 195.061 35.568 196.525 35.568C197.797 35.568 198.589 34.704 198.685 33.24H203.053C202.693 36.936 200.173 39.24 196.501 39.24ZM210.754 39.216C206.77 39.216 204.106 36.528 204.106 32.52C204.106 28.656 206.89 25.848 210.73 25.848C215.002 25.848 217.858 29.328 217.114 33.576H208.354C208.57 35.208 209.338 36.024 210.658 36.024C211.81 36.024 212.578 35.544 212.938 34.608H217.042C216.25 37.56 213.97 39.216 210.754 39.216ZM210.634 28.872C209.41 28.872 208.69 29.568 208.402 31.008H212.722C212.674 29.712 211.858 28.872 210.634 28.872Z" fill="#FFFFE3"/>
</svg>
