<svg width="50" height="50" viewBox="0 0 50 50" fill="none" xmlns="http://www.w3.org/2000/svg">
<path d="M43.0556 2.77783H6.9445C4.64311 2.77783 2.77783 4.64311 2.77783 6.9445V43.0556C2.77783 45.357 4.64311 47.2223 6.9445 47.2223H43.0556C45.357 47.2223 47.2223 45.357 47.2223 43.0556V6.9445C47.2223 4.64311 45.357 2.77783 43.0556 2.77783Z" fill="#CCD6DD"/>
<path d="M43.0556 1.38867H6.94447C3.87642 1.38867 1.38892 3.87617 1.38892 6.94423V43.0553C1.38892 46.1234 3.87642 48.6109 6.94447 48.6109H43.0556C46.1236 48.6109 48.6111 46.1234 48.6111 43.0553V6.94423C48.6111 3.87617 46.1236 1.38867 43.0556 1.38867ZM43.0556 4.16645C44.5875 4.16645 45.8334 5.41228 45.8334 6.94423V12.4998H37.5V4.16645H43.0556ZM37.5 26.3887H45.8334V34.722H37.5V26.3887ZM37.5 23.6109V15.2776H45.8334V23.6109H37.5ZM34.7222 4.16645V12.4998H26.3889V4.16645H34.7222ZM26.3889 15.2776H34.7222V23.6109H26.3889V15.2776ZM26.3889 26.3887H34.7222V34.722H26.3889V26.3887ZM23.6111 4.16645V12.4998H15.2778V4.16645H23.6111ZM15.2778 15.2776H23.6111V23.6109H15.2778V15.2776ZM15.2778 26.3887H23.6111V34.722H15.2778V26.3887ZM4.16669 6.94423C4.16669 5.41228 5.41253 4.16645 6.94447 4.16645H12.5V12.4998H4.16669V6.94423ZM4.16669 15.2776H12.5V23.6109H4.16669V15.2776ZM4.16669 26.3887H12.5V34.722H4.16669V26.3887ZM6.94447 45.8331C5.41253 45.8331 4.16669 44.5873 4.16669 43.0553V37.4998H12.5V45.8331H6.94447ZM15.2778 45.8331V37.4998H23.6111V45.8331H15.2778ZM26.3889 45.8331V37.4998H34.7222V45.8331H26.3889ZM43.0556 45.8331H37.5V37.4998H45.8334V43.0553C45.8334 44.5873 44.5875 45.8331 43.0556 45.8331Z" fill="white" fill-opacity="0.04"/>
<path d="M6.94175 45.8333C6.49731 45.8333 6.04592 45.7277 5.62786 45.5014C4.27647 44.775 3.77231 43.0902 4.4987 41.7389L14.2209 23.6833C14.6362 22.9097 15.3945 22.3791 16.2626 22.2514C17.132 22.1236 18.0098 22.4152 18.6306 23.0361L27.0695 31.475L40.5945 5.65553C41.3056 4.29719 42.9848 3.7708 44.3431 4.48469C45.7029 5.1958 46.2265 6.87497 45.5154 8.23469L30.2376 37.4014C29.8279 38.1847 29.0695 38.725 28.1959 38.8597C27.3251 38.9861 26.4376 38.7027 25.8126 38.0777L17.3404 29.6069L9.39036 44.3722C8.88897 45.3041 7.93064 45.8333 6.94175 45.8333Z" fill="#DD2E44"/>
</svg>
