<svg width="50" height="50" viewBox="0 0 50 50" fill="none" xmlns="http://www.w3.org/2000/svg">
<g clip-path="url(#clip0_496_2303)">
<path d="M48.6111 36.1111C48.6111 39.1792 46.1236 41.6667 43.0556 41.6667H6.94447C3.87642 41.6667 1.38892 39.1792 1.38892 36.1111V8.76806C1.38892 5.7 9.43197 0 12.5 0H41.1459C45.4431 0 48.6111 3.21111 48.6111 7.46528V36.1111Z" fill="black"/>
<path d="M45.8334 41.6667C45.8334 44.7348 43.3459 47.2223 40.2779 47.2223H9.72231C6.65425 47.2223 4.16675 44.7348 4.16675 41.6667V8.33339C4.16675 2.61256 4.13758 2.77784 11.1112 2.77784H40.2779C43.3459 2.77784 45.8334 5.26534 45.8334 8.33339V41.6667Z" fill="#CCD6DD"/>
<path d="M43.0556 43.0557C43.0556 45.3571 41.1903 47.2223 38.8889 47.2223H5.55558C3.25419 47.2223 1.38892 45.3571 1.38892 43.0557V9.72233C1.38892 7.42094 3.25419 5.55566 5.55558 5.55566H38.8889C41.1903 5.55566 43.0556 7.42094 43.0556 9.72233V43.0557Z" fill="#E1E8ED"/>
<path d="M43.0556 44.4446C43.0556 47.5127 40.5681 50.0002 37.5001 50.0002H8.33339C5.26533 50.0002 2.77783 47.5127 2.77783 44.4446V13.8891C2.77783 10.821 5.26533 8.3335 8.33339 8.3335H37.5001C40.5681 8.3335 43.0556 10.821 43.0556 13.8891V44.4446Z" fill="black"/>
<path d="M40.2778 44.4447C40.2778 47.5127 37.7903 50.0002 34.7223 50.0002H8.33339C5.26533 50.0002 2.77783 47.5127 2.77783 44.4447V16.6669C2.77783 13.5988 5.26533 11.1113 8.33339 11.1113H35.1876C38.2556 11.1113 40.2778 13.1336 40.2778 16.2016V44.4447Z" fill="black"/>
<path d="M8.33336 8.33333C5.98892 8.33333 5.92919 5.66389 6.94447 4.51389C8.10003 3.20694 9.89586 2.77778 13.1084 2.77778H15.2778V0H11.5014C5.98892 0 1.38892 3.47222 1.38892 7.46528V44.4444C1.38892 47.5125 3.87642 50 6.94447 50H9.72225V8.33333H8.33336Z" fill="black"/>
</g>
<defs>
<clipPath id="clip0_496_2303">
<rect width="50" height="50" fill="white"/>
</clipPath>
</defs>
</svg>
