<svg width="30" height="30" viewBox="0 0 30 30" fill="none" xmlns="http://www.w3.org/2000/svg">
<path fill-rule="evenodd" clip-rule="evenodd" d="M14.3578 5.9599C9.65243 6.2893 5.9375 10.2108 5.9375 15C5.9375 20.0051 9.99492 24.0625 15 24.0625C19.0098 24.0625 22.4121 21.4577 23.606 17.8483C22.6872 18.2279 21.6801 18.4375 20.625 18.4375C16.3103 18.4375 12.8125 14.9397 12.8125 10.625C12.8125 8.87607 13.3876 7.26136 14.3578 5.9599ZM4.0625 15C4.0625 8.95938 8.95938 4.0625 15 4.0625C15.562 4.0625 16.1147 4.10497 16.6549 4.18702C17.0286 4.24379 17.3317 4.51942 17.4236 4.88608C17.5154 5.25274 17.3781 5.63869 17.0753 5.86493C15.624 6.94919 14.6875 8.6776 14.6875 10.625C14.6875 13.9042 17.3458 16.5625 20.625 16.5625C22.0428 16.5625 23.3423 16.0667 24.3632 15.2383C24.6565 15.0002 25.0641 14.9615 25.3971 15.1401C25.73 15.3187 25.9232 15.6797 25.8871 16.0558C25.3554 21.6015 20.6846 25.9375 15 25.9375C8.95938 25.9375 4.0625 21.0406 4.0625 15Z" fill="#0E5CF9"/>
</svg>
