<svg width="26" height="25" viewBox="0 0 26 25" fill="none" xmlns="http://www.w3.org/2000/svg">
<path d="M11.75 13.75V17.5C11.75 17.8542 11.87 18.1512 12.11 18.3912C12.35 18.6312 12.6467 18.7508 13 18.75C13.3533 18.7492 13.6504 18.6292 13.8913 18.39C14.1321 18.1508 14.2517 17.8542 14.25 17.5V13.75H18C18.3542 13.75 18.6513 13.63 18.8913 13.39C19.1313 13.15 19.2508 12.8533 19.25 12.5C19.2492 12.1467 19.1292 11.85 18.89 11.61C18.6508 11.37 18.3542 11.25 18 11.25H14.25V7.5C14.25 7.14583 14.13 6.84917 13.89 6.61C13.65 6.37083 13.3533 6.25083 13 6.25C12.6467 6.24917 12.35 6.36917 12.11 6.61C11.87 6.85083 11.75 7.1475 11.75 7.5V11.25H8C7.64583 11.25 7.34917 11.37 7.11 11.61C6.87084 11.85 6.75083 12.1467 6.75 12.5C6.74917 12.8533 6.86917 13.1504 7.11 13.3913C7.35084 13.6321 7.6475 13.7517 8 13.75H11.75ZM13 25C11.2708 25 9.64584 24.6717 8.125 24.015C6.60417 23.3583 5.28125 22.4679 4.15625 21.3438C3.03125 20.2196 2.14084 18.8967 1.485 17.375C0.829168 15.8533 0.500835 14.2283 0.500002 12.5C0.499168 10.7717 0.827502 9.14667 1.485 7.625C2.1425 6.10333 3.03292 4.78042 4.15625 3.65625C5.27958 2.53208 6.6025 1.64167 8.125 0.985C9.6475 0.328333 11.2725 0 13 0C14.7275 0 16.3525 0.328333 17.875 0.985C19.3975 1.64167 20.7204 2.53208 21.8438 3.65625C22.9671 4.78042 23.8579 6.10333 24.5163 7.625C25.1746 9.14667 25.5025 10.7717 25.5 12.5C25.4975 14.2283 25.1692 15.8533 24.515 17.375C23.8608 18.8967 22.9704 20.2196 21.8438 21.3438C20.7171 22.4679 19.3942 23.3587 17.875 24.0162C16.3558 24.6737 14.7308 25.0017 13 25Z" fill="white"/>
</svg>
