<svg width="51" height="50" viewBox="0 0 51 50" fill="none" xmlns="http://www.w3.org/2000/svg">
<rect x="0.166992" width="50" height="50" rx="20" fill="#F5D275"/>
<path d="M33.4624 22C33.3763 21.3329 33.107 20.7028 32.6845 20.1795C32.262 19.6562 31.7028 19.2602 31.0688 19.0355C30.4349 18.8107 29.7512 18.7659 29.0934 18.9062C28.4356 19.0464 27.8295 19.3662 27.3424 19.83H22.0024C21.327 19.1902 20.4327 18.8325 19.5024 18.83C18.6164 18.8283 17.76 19.1491 17.093 19.7323C16.426 20.3156 15.9939 21.1216 15.8774 22L14.9224 29.62C14.7624 31.565 18.1874 31.62 18.8274 30.28L20.9124 25.82H28.4124L30.4974 30.28C31.1374 31.61 34.5624 31.565 34.4024 29.62L33.4624 22ZM31.1224 21.765C31.2631 21.764 31.4008 21.8048 31.5182 21.8822C31.6356 21.9596 31.7274 22.0701 31.7819 22.1998C31.8364 22.3294 31.8512 22.4723 31.8244 22.6104C31.7976 22.7484 31.7303 22.8754 31.6312 22.9752C31.5321 23.075 31.4056 23.1431 31.2678 23.1709C31.1299 23.1987 30.9869 23.185 30.8569 23.1314C30.7269 23.0778 30.6157 22.9868 30.5374 22.8699C30.4592 22.7531 30.4174 22.6156 30.4174 22.475C30.4148 22.3805 30.431 22.2864 30.4652 22.1983C30.4993 22.1101 30.5508 22.0297 30.6164 21.9617C30.6821 21.8937 30.7607 21.8395 30.8476 21.8023C30.9344 21.7651 31.0279 21.7456 31.1224 21.745V21.765ZM27.5224 22.475C27.5224 22.2867 27.5972 22.1061 27.7304 21.9729C27.8635 21.8398 28.0441 21.765 28.2324 21.765C28.3728 21.765 28.5101 21.8066 28.6269 21.8846C28.7436 21.9626 28.8346 22.0735 28.8884 22.2033C28.9421 22.333 28.9562 22.4757 28.9288 22.6135C28.9014 22.7512 28.8338 22.8777 28.7345 22.977C28.6352 23.0763 28.5087 23.1439 28.3709 23.1713C28.2332 23.1987 28.0905 23.1847 27.9607 23.1309C27.831 23.0772 27.7201 22.9862 27.6421 22.8694C27.5641 22.7527 27.5224 22.6154 27.5224 22.475ZM18.7824 24.025V23.165H17.9224C17.8071 23.165 17.6964 23.1191 17.6148 23.0376C17.5333 22.956 17.4874 22.8453 17.4874 22.73V22.185C17.4868 22.1274 17.4975 22.0703 17.5191 22.017C17.5407 21.9636 17.5726 21.9151 17.613 21.8741C17.6535 21.8332 17.7017 21.8007 17.7548 21.7785C17.8079 21.7564 17.8649 21.745 17.9224 21.745H18.7824V20.89C18.7824 20.7746 18.8283 20.6639 18.9098 20.5824C18.9914 20.5008 19.1021 20.455 19.2174 20.455H19.7624C19.82 20.4543 19.8771 20.4651 19.9304 20.4866C19.9838 20.5082 20.0323 20.5401 20.0732 20.5806C20.1142 20.621 20.1467 20.6692 20.1688 20.7223C20.191 20.7754 20.2024 20.8324 20.2024 20.89V21.745H21.0574C21.115 21.745 21.1719 21.7564 21.2251 21.7785C21.2782 21.8007 21.3263 21.8332 21.3668 21.8741C21.4073 21.9151 21.4392 21.9636 21.4608 22.017C21.4823 22.0703 21.4931 22.1274 21.4924 22.185V22.73C21.4924 22.8453 21.4466 22.956 21.365 23.0376C21.2834 23.1191 21.1728 23.165 21.0574 23.165H20.2024V24.025C20.2024 24.0825 20.191 24.1395 20.1688 24.1926C20.1467 24.2457 20.1142 24.2939 20.0732 24.3343C20.0323 24.3748 19.9838 24.4067 19.9304 24.4283C19.8771 24.4499 19.82 24.4606 19.7624 24.46H19.2174C19.1782 24.4562 19.1396 24.4478 19.1024 24.435L18.8524 24.245C18.8092 24.1795 18.785 24.1033 18.7824 24.025ZM30.3874 23.905C30.3874 24.045 30.346 24.1818 30.2684 24.2984C30.1908 24.4149 30.0805 24.5059 29.9514 24.5599C29.8222 24.6139 29.68 24.6286 29.5425 24.602C29.4051 24.5754 29.2786 24.5087 29.1789 24.4104C29.0792 24.3121 29.0108 24.1866 28.9823 24.0495C28.9538 23.9124 28.9664 23.77 29.0186 23.6401C29.0708 23.5102 29.1603 23.3987 29.2757 23.3194C29.3912 23.2402 29.5274 23.1969 29.6674 23.195C29.7615 23.1936 29.8549 23.211 29.9422 23.2461C30.0295 23.2812 30.1089 23.3333 30.1759 23.3993C30.2429 23.4654 30.2961 23.5441 30.3324 23.6309C30.3687 23.7177 30.3874 23.8109 30.3874 23.905ZM29.6674 20.3C29.8553 20.2986 30.0362 20.3713 30.171 20.5023C30.3057 20.6333 30.3835 20.8121 30.3874 21C30.3894 21.1404 30.3497 21.2782 30.2733 21.396C30.1969 21.5139 30.0873 21.6064 29.9584 21.662C29.8294 21.7175 29.6869 21.7336 29.5488 21.7081C29.4107 21.6827 29.2832 21.6168 29.1826 21.519C29.0819 21.4211 29.0125 21.2955 28.9832 21.1582C28.9538 21.0209 28.9659 20.878 29.0178 20.7475C29.0697 20.617 29.1591 20.5048 29.2747 20.4252C29.3904 20.3455 29.527 20.302 29.6674 20.3Z" stroke="white" stroke-linecap="round" stroke-linejoin="round"/>
</svg>
