<svg width="51" height="50" viewBox="0 0 51 50" fill="none" xmlns="http://www.w3.org/2000/svg">
<rect x="0.5" width="50" height="50" rx="20" fill="#F5D275"/>
<path d="M25.5 15C19.986 15 15.5 19.486 15.5 25C15.5 30.514 19.986 35 25.5 35C31.014 35 35.5 30.514 35.5 25C35.5 19.486 31.014 15 25.5 15ZM25.5 33C21.089 33 17.5 29.411 17.5 25C17.5 20.589 21.089 17 25.5 17C29.911 17 33.5 20.589 33.5 25C33.5 29.411 29.911 33 25.5 33Z" fill="white"/>
<path d="M28.3294 27.8283C27.9632 28.1918 27.5316 28.4829 27.0574 28.6863C26.2028 29.0476 25.2491 29.1004 24.3598 28.8359C23.4704 28.5714 22.7007 28.0059 22.1824 27.2363L20.5244 28.3553C20.9575 28.9929 21.5076 29.5426 22.1454 29.9753C22.7955 30.4138 23.5253 30.7206 24.2934 30.8783C25.0901 31.042 25.9117 31.042 26.7084 30.8783C27.4765 30.7206 28.2063 30.4138 28.8564 29.9753C29.1694 29.7633 29.4684 29.5173 29.7424 29.2443C30.0144 28.9733 30.2624 28.6733 30.4764 28.3553L28.8184 27.2363C28.6748 27.4489 28.511 27.6471 28.3294 27.8283Z" fill="white"/>
<path d="M22 25C22.8284 25 23.5 24.3284 23.5 23.5C23.5 22.6716 22.8284 22 22 22C21.1716 22 20.5 22.6716 20.5 23.5C20.5 24.3284 21.1716 25 22 25Z" fill="white"/>
<path d="M28.993 24.986C29.8176 24.986 30.486 24.3176 30.486 23.493C30.486 22.6684 29.8176 22 28.993 22C28.1684 22 27.5 22.6684 27.5 23.493C27.5 24.3176 28.1684 24.986 28.993 24.986Z" fill="white"/>
</svg>
